<svg xmlns="http://www.w3.org/2000/svg" viewBox="0 0 1280 420" width="1280" height="420">
  <defs>
    <!-- Grid pattern -->
    <pattern id="grid" width="40" height="40" patternUnits="userSpaceOnUse">
      <path d="M 40 0 L 0 0 0 40" fill="none" stroke="#2a3045" stroke-width="0.5" opacity="0.35"/>
    </pattern>

    <!-- Violet to blue gradient for connections -->
    <linearGradient id="violetBlue" x1="0%" y1="0%" x2="100%" y2="0%">
      <stop offset="0%" stop-color="#7a00df"/>
      <stop offset="100%" stop-color="#0693e3"/>
    </linearGradient>

    <!-- Top accent gradient -->
    <linearGradient id="topAccent" x1="0%" y1="0%" x2="100%" y2="0%">
      <stop offset="0%" stop-color="#9b33f0"/>
      <stop offset="50%" stop-color="#7a00df"/>
      <stop offset="100%" stop-color="#0693e3"/>
    </linearGradient>

    <!-- Radial glow for lightbulb -->
    <radialGradient id="bulbGlow" cx="50%" cy="50%" r="50%">
      <stop offset="0%" stop-color="#9b33f0" stop-opacity="0.3"/>
      <stop offset="50%" stop-color="#9b33f0" stop-opacity="0.12"/>
      <stop offset="100%" stop-color="#9b33f0" stop-opacity="0"/>
    </radialGradient>

    <!-- Radial glow wider -->
    <radialGradient id="bulbGlowWide" cx="50%" cy="50%" r="50%">
      <stop offset="0%" stop-color="#7a00df" stop-opacity="0.15"/>
      <stop offset="60%" stop-color="#5e00ab" stop-opacity="0.05"/>
      <stop offset="100%" stop-color="#5e00ab" stop-opacity="0"/>
    </radialGradient>

    <!-- Violet node glow -->
    <radialGradient id="violetNodeGlow" cx="50%" cy="50%" r="50%">
      <stop offset="0%" stop-color="#9b33f0" stop-opacity="0.6"/>
      <stop offset="100%" stop-color="#7a00df" stop-opacity="0"/>
    </radialGradient>

    <!-- Blue node glow -->
    <radialGradient id="blueNodeGlow" cx="50%" cy="50%" r="50%">
      <stop offset="0%" stop-color="#34a9ea" stop-opacity="0.6"/>
      <stop offset="100%" stop-color="#0693e3" stop-opacity="0"/>
    </radialGradient>
  </defs>

  <!-- Background -->
  <rect width="1280" height="420" fill="#141720"/>

  <!-- Grid overlay -->
  <rect width="1280" height="420" fill="url(#grid)"/>

  <!-- Top accent line -->
  <line x1="0" y1="1" x2="1280" y2="1" stroke="url(#topAccent)" stroke-width="2" opacity="0.6"/>

  <!-- Wide glow behind lightbulb -->
  <ellipse cx="640" cy="195" rx="220" ry="180" fill="url(#bulbGlowWide)"/>

  <!-- === OUTER CONNECTIONS (dim, far left/right) === -->
  <line x1="45" y1="80" x2="120" y2="145" stroke="#2a3045" stroke-width="0.8" opacity="0.5"/>
  <line x1="30" y1="200" x2="120" y2="145" stroke="#2a3045" stroke-width="0.8" opacity="0.5"/>
  <line x1="60" y1="320" x2="135" y2="260" stroke="#2a3045" stroke-width="0.8" opacity="0.5"/>
  <line x1="30" y1="200" x2="135" y2="260" stroke="#2a3045" stroke-width="0.8" opacity="0.5"/>
  <line x1="90" y1="50" x2="120" y2="145" stroke="#2a3045" stroke-width="0.8" opacity="0.5"/>
  <line x1="80" y1="370" x2="135" y2="260" stroke="#2a3045" stroke-width="0.8" opacity="0.5"/>
  <line x1="120" y1="145" x2="135" y2="260" stroke="#2a3045" stroke-width="0.8" opacity="0.4"/>

  <line x1="1235" y1="80" x2="1160" y2="145" stroke="#2a3045" stroke-width="0.8" opacity="0.5"/>
  <line x1="1250" y1="200" x2="1160" y2="145" stroke="#2a3045" stroke-width="0.8" opacity="0.5"/>
  <line x1="1220" y1="320" x2="1145" y2="260" stroke="#2a3045" stroke-width="0.8" opacity="0.5"/>
  <line x1="1250" y1="200" x2="1145" y2="260" stroke="#2a3045" stroke-width="0.8" opacity="0.5"/>
  <line x1="1190" y1="50" x2="1160" y2="145" stroke="#2a3045" stroke-width="0.8" opacity="0.5"/>
  <line x1="1200" y1="370" x2="1145" y2="260" stroke="#2a3045" stroke-width="0.8" opacity="0.5"/>
  <line x1="1160" y1="145" x2="1145" y2="260" stroke="#2a3045" stroke-width="0.8" opacity="0.4"/>

  <!-- Mid-left connections -->
  <line x1="120" y1="145" x2="230" y2="120" stroke="#2a3045" stroke-width="0.8" opacity="0.5"/>
  <line x1="135" y1="260" x2="240" y2="290" stroke="#2a3045" stroke-width="0.8" opacity="0.5"/>
  <line x1="120" y1="145" x2="250" y2="200" stroke="#2a3045" stroke-width="0.8" opacity="0.5"/>
  <line x1="135" y1="260" x2="250" y2="200" stroke="#2a3045" stroke-width="0.8" opacity="0.5"/>
  <line x1="230" y1="120" x2="250" y2="200" stroke="#2a3045" stroke-width="0.8" opacity="0.45"/>
  <line x1="240" y1="290" x2="250" y2="200" stroke="#2a3045" stroke-width="0.8" opacity="0.45"/>
  <line x1="230" y1="120" x2="220" y2="55" stroke="#2a3045" stroke-width="0.8" opacity="0.5"/>
  <line x1="240" y1="290" x2="225" y2="365" stroke="#2a3045" stroke-width="0.8" opacity="0.5"/>

  <!-- Mid-right connections -->
  <line x1="1160" y1="145" x2="1050" y2="120" stroke="#2a3045" stroke-width="0.8" opacity="0.5"/>
  <line x1="1145" y1="260" x2="1040" y2="290" stroke="#2a3045" stroke-width="0.8" opacity="0.5"/>
  <line x1="1160" y1="145" x2="1030" y2="200" stroke="#2a3045" stroke-width="0.8" opacity="0.5"/>
  <line x1="1145" y1="260" x2="1030" y2="200" stroke="#2a3045" stroke-width="0.8" opacity="0.5"/>
  <line x1="1050" y1="120" x2="1030" y2="200" stroke="#2a3045" stroke-width="0.8" opacity="0.45"/>
  <line x1="1040" y1="290" x2="1030" y2="200" stroke="#2a3045" stroke-width="0.8" opacity="0.45"/>
  <line x1="1050" y1="120" x2="1060" y2="55" stroke="#2a3045" stroke-width="0.8" opacity="0.5"/>
  <line x1="1040" y1="290" x2="1055" y2="365" stroke="#2a3045" stroke-width="0.8" opacity="0.5"/>

  <!-- === MIDDLE-ZONE CONNECTIONS === -->
  <line x1="230" y1="120" x2="370" y2="130" stroke="#3d4560" stroke-width="1" opacity="0.4"/>
  <line x1="250" y1="200" x2="370" y2="130" stroke="#3d4560" stroke-width="1" opacity="0.4"/>
  <line x1="250" y1="200" x2="360" y2="210" stroke="#3d4560" stroke-width="1" opacity="0.4"/>
  <line x1="240" y1="290" x2="360" y2="210" stroke="#3d4560" stroke-width="1" opacity="0.4"/>
  <line x1="240" y1="290" x2="380" y2="310" stroke="#3d4560" stroke-width="1" opacity="0.4"/>
  <line x1="370" y1="130" x2="360" y2="210" stroke="#3d4560" stroke-width="1" opacity="0.35"/>
  <line x1="360" y1="210" x2="380" y2="310" stroke="#3d4560" stroke-width="1" opacity="0.35"/>
  <line x1="370" y1="130" x2="350" y2="60" stroke="#3d4560" stroke-width="1" opacity="0.4"/>
  <line x1="380" y1="310" x2="365" y2="375" stroke="#3d4560" stroke-width="1" opacity="0.4"/>

  <line x1="1050" y1="120" x2="910" y2="130" stroke="#3d4560" stroke-width="1" opacity="0.4"/>
  <line x1="1030" y1="200" x2="910" y2="130" stroke="#3d4560" stroke-width="1" opacity="0.4"/>
  <line x1="1030" y1="200" x2="920" y2="210" stroke="#3d4560" stroke-width="1" opacity="0.4"/>
  <line x1="1040" y1="290" x2="920" y2="210" stroke="#3d4560" stroke-width="1" opacity="0.4"/>
  <line x1="1040" y1="290" x2="900" y2="310" stroke="#3d4560" stroke-width="1" opacity="0.4"/>
  <line x1="910" y1="130" x2="920" y2="210" stroke="#3d4560" stroke-width="1" opacity="0.35"/>
  <line x1="920" y1="210" x2="900" y2="310" stroke="#3d4560" stroke-width="1" opacity="0.35"/>
  <line x1="910" y1="130" x2="930" y2="60" stroke="#3d4560" stroke-width="1" opacity="0.4"/>
  <line x1="900" y1="310" x2="915" y2="375" stroke="#3d4560" stroke-width="1" opacity="0.4"/>

  <!-- === INNER CONNECTIONS (violet-blue gradient) === -->
  <line x1="370" y1="130" x2="500" y2="150" stroke="url(#violetBlue)" stroke-width="1.5" opacity="0.35"/>
  <line x1="360" y1="210" x2="500" y2="150" stroke="url(#violetBlue)" stroke-width="1.5" opacity="0.35"/>
  <line x1="360" y1="210" x2="510" y2="230" stroke="url(#violetBlue)" stroke-width="1.5" opacity="0.35"/>
  <line x1="380" y1="310" x2="510" y2="230" stroke="url(#violetBlue)" stroke-width="1.5" opacity="0.35"/>
  <line x1="380" y1="310" x2="520" y2="310" stroke="url(#violetBlue)" stroke-width="1.5" opacity="0.3"/>
  <line x1="370" y1="130" x2="520" y2="90" stroke="url(#violetBlue)" stroke-width="1.5" opacity="0.3"/>
  <line x1="500" y1="150" x2="510" y2="230" stroke="url(#violetBlue)" stroke-width="1.5" opacity="0.3"/>
  <line x1="500" y1="150" x2="580" y2="170" stroke="url(#violetBlue)" stroke-width="1.5" opacity="0.3"/>
  <line x1="510" y1="230" x2="580" y2="250" stroke="url(#violetBlue)" stroke-width="1.5" opacity="0.3"/>
  <line x1="520" y1="310" x2="580" y2="250" stroke="url(#violetBlue)" stroke-width="1.5" opacity="0.25"/>
  <line x1="520" y1="90" x2="580" y2="170" stroke="url(#violetBlue)" stroke-width="1.5" opacity="0.25"/>

  <line x1="910" y1="130" x2="780" y2="150" stroke="url(#violetBlue)" stroke-width="1.5" opacity="0.35"/>
  <line x1="920" y1="210" x2="780" y2="150" stroke="url(#violetBlue)" stroke-width="1.5" opacity="0.35"/>
  <line x1="920" y1="210" x2="770" y2="230" stroke="url(#violetBlue)" stroke-width="1.5" opacity="0.35"/>
  <line x1="900" y1="310" x2="770" y2="230" stroke="url(#violetBlue)" stroke-width="1.5" opacity="0.35"/>
  <line x1="900" y1="310" x2="760" y2="310" stroke="url(#violetBlue)" stroke-width="1.5" opacity="0.3"/>
  <line x1="910" y1="130" x2="760" y2="90" stroke="url(#violetBlue)" stroke-width="1.5" opacity="0.3"/>
  <line x1="780" y1="150" x2="770" y2="230" stroke="url(#violetBlue)" stroke-width="1.5" opacity="0.3"/>
  <line x1="780" y1="150" x2="700" y2="170" stroke="url(#violetBlue)" stroke-width="1.5" opacity="0.3"/>
  <line x1="770" y1="230" x2="700" y2="250" stroke="url(#violetBlue)" stroke-width="1.5" opacity="0.3"/>
  <line x1="760" y1="310" x2="700" y2="250" stroke="url(#violetBlue)" stroke-width="1.5" opacity="0.25"/>
  <line x1="760" y1="90" x2="700" y2="170" stroke="url(#violetBlue)" stroke-width="1.5" opacity="0.25"/>

  <!-- Cross connections near center -->
  <line x1="580" y1="170" x2="700" y2="170" stroke="url(#violetBlue)" stroke-width="1.5" opacity="0.25"/>
  <line x1="580" y1="250" x2="700" y2="250" stroke="url(#violetBlue)" stroke-width="1.5" opacity="0.25"/>

  <!-- === RADIAL GLOW === -->
  <ellipse cx="640" cy="195" rx="130" ry="120" fill="url(#bulbGlow)"/>

  <!-- === LIGHTBULB (centered at 640, 180) === -->
  <g transform="translate(640, 180)">
    <!-- Bulb glass shape -->
    <path d="M -28 10 C -28 10 -38 -10 -38 -30 C -38 -55 -22 -72 0 -72 C 22 -72 38 -55 38 -30 C 38 -10 28 10 28 10 L 24 20 C 24 20 22 28 20 30 L -20 30 C -22 28 -24 20 -24 20 Z" fill="none" stroke="#9b33f0" stroke-width="2" opacity="0.5"/>

    <!-- Screw base -->
    <rect x="-18" y="30" width="36" height="6" rx="2" fill="none" stroke="#9b33f0" stroke-width="1.5" opacity="0.4"/>
    <rect x="-16" y="38" width="32" height="5" rx="2" fill="none" stroke="#9b33f0" stroke-width="1.5" opacity="0.35"/>
    <rect x="-14" y="45" width="28" height="5" rx="2" fill="none" stroke="#9b33f0" stroke-width="1.5" opacity="0.3"/>
    <path d="M -8 52 C -4 58 4 58 8 52" fill="none" stroke="#9b33f0" stroke-width="1.5" opacity="0.25"/>

    <!-- Brain-like internal curves (left hemisphere) -->
    <path d="M -10 -50 C -18 -40 -12 -30 -20 -20" fill="none" stroke="#b366f5" stroke-width="1.2" opacity="0.25"/>
    <path d="M -6 -55 C -14 -42 -6 -35 -16 -25" fill="none" stroke="#b366f5" stroke-width="1" opacity="0.2"/>
    <path d="M -8 -30 C -16 -22 -10 -12 -18 -5" fill="none" stroke="#b366f5" stroke-width="1" opacity="0.2"/>
    <path d="M -5 -45 C -8 -38 -15 -35 -12 -28" fill="none" stroke="#b366f5" stroke-width="0.8" opacity="0.18"/>

    <!-- Brain-like internal curves (right hemisphere) -->
    <path d="M 10 -50 C 18 -40 12 -30 20 -20" fill="none" stroke="#b366f5" stroke-width="1.2" opacity="0.25"/>
    <path d="M 6 -55 C 14 -42 6 -35 16 -25" fill="none" stroke="#b366f5" stroke-width="1" opacity="0.2"/>
    <path d="M 8 -30 C 16 -22 10 -12 18 -5" fill="none" stroke="#b366f5" stroke-width="1" opacity="0.2"/>
    <path d="M 5 -45 C 8 -38 15 -35 12 -28" fill="none" stroke="#b366f5" stroke-width="0.8" opacity="0.18"/>

    <!-- Center division line -->
    <path d="M 0 -60 C -2 -45 2 -35 0 -15" fill="none" stroke="#b366f5" stroke-width="0.8" opacity="0.2"/>

    <!-- Filament lines -->
    <line x1="-10" y1="20" x2="0" y2="-5" stroke="#9b33f0" stroke-width="1" opacity="0.4"/>
    <line x1="10" y1="20" x2="0" y2="-5" stroke="#9b33f0" stroke-width="1" opacity="0.4"/>
    <!-- Filament center glow dot -->
    <circle cx="0" cy="-5" r="2.5" fill="#b366f5" opacity="0.5"/>
    <circle cx="0" cy="-5" r="1.2" fill="#ffffff" opacity="0.3"/>
  </g>

  <!-- === OUTER NODES (far left/right, dim, small) === -->
  <circle cx="45" cy="80" r="3" fill="#3d4560"/>
  <circle cx="30" cy="200" r="3.5" fill="#3d4560"/>
  <circle cx="60" cy="320" r="3" fill="#3d4560"/>
  <circle cx="90" cy="50" r="2.5" fill="#3d4560"/>
  <circle cx="80" cy="370" r="2.5" fill="#3d4560"/>

  <circle cx="1235" cy="80" r="3" fill="#3d4560"/>
  <circle cx="1250" cy="200" r="3.5" fill="#3d4560"/>
  <circle cx="1220" cy="320" r="3" fill="#3d4560"/>
  <circle cx="1190" cy="50" r="2.5" fill="#3d4560"/>
  <circle cx="1200" cy="370" r="2.5" fill="#3d4560"/>

  <!-- === MID NODES (medium brightness, medium size) === -->
  <circle cx="120" cy="145" r="4" fill="#566480"/>
  <circle cx="135" cy="260" r="4" fill="#566480"/>
  <circle cx="230" cy="120" r="4.5" fill="#566480"/>
  <circle cx="250" cy="200" r="4.5" fill="#566480"/>
  <circle cx="240" cy="290" r="4.5" fill="#566480"/>
  <circle cx="220" cy="55" r="3.5" fill="#566480"/>
  <circle cx="225" cy="365" r="3.5" fill="#566480"/>

  <circle cx="1160" cy="145" r="4" fill="#566480"/>
  <circle cx="1145" cy="260" r="4" fill="#566480"/>
  <circle cx="1050" cy="120" r="4.5" fill="#566480"/>
  <circle cx="1030" cy="200" r="4.5" fill="#566480"/>
  <circle cx="1040" cy="290" r="4.5" fill="#566480"/>
  <circle cx="1060" cy="55" r="3.5" fill="#566480"/>
  <circle cx="1055" cy="365" r="3.5" fill="#566480"/>

  <!-- === INNER-MID NODES (transitional) === -->
  <circle cx="370" cy="130" r="5" fill="#566480"/>
  <circle cx="360" cy="210" r="5" fill="#566480"/>
  <circle cx="380" cy="310" r="4.5" fill="#566480"/>
  <circle cx="350" cy="60" r="4" fill="#566480"/>
  <circle cx="365" cy="375" r="4" fill="#566480"/>

  <circle cx="910" cy="130" r="5" fill="#566480"/>
  <circle cx="920" cy="210" r="5" fill="#566480"/>
  <circle cx="900" cy="310" r="4.5" fill="#566480"/>
  <circle cx="930" cy="60" r="4" fill="#566480"/>
  <circle cx="915" cy="375" r="4" fill="#566480"/>

  <!-- === INNER NODES (glowing violet left, blue right) === -->
  <!-- Left inner (violet) -->
  <circle cx="500" cy="150" r="8" fill="url(#violetNodeGlow)"/>
  <circle cx="500" cy="150" r="5.5" fill="#7a00df" opacity="0.7"/>
  <circle cx="500" cy="150" r="3" fill="#9b33f0" opacity="0.9"/>

  <circle cx="510" cy="230" r="8" fill="url(#violetNodeGlow)"/>
  <circle cx="510" cy="230" r="5.5" fill="#7a00df" opacity="0.7"/>
  <circle cx="510" cy="230" r="3" fill="#9b33f0" opacity="0.9"/>

  <circle cx="520" cy="310" r="7" fill="url(#violetNodeGlow)"/>
  <circle cx="520" cy="310" r="5" fill="#7a00df" opacity="0.6"/>
  <circle cx="520" cy="310" r="2.5" fill="#9b33f0" opacity="0.8"/>

  <circle cx="520" cy="90" r="7" fill="url(#violetNodeGlow)"/>
  <circle cx="520" cy="90" r="5" fill="#7a00df" opacity="0.6"/>
  <circle cx="520" cy="90" r="2.5" fill="#9b33f0" opacity="0.8"/>

  <circle cx="580" cy="170" r="8" fill="url(#violetNodeGlow)"/>
  <circle cx="580" cy="170" r="6" fill="#9b33f0" opacity="0.7"/>
  <circle cx="580" cy="170" r="3" fill="#b366f5" opacity="0.9"/>

  <circle cx="580" cy="250" r="8" fill="url(#violetNodeGlow)"/>
  <circle cx="580" cy="250" r="6" fill="#9b33f0" opacity="0.7"/>
  <circle cx="580" cy="250" r="3" fill="#b366f5" opacity="0.9"/>

  <!-- Right inner (blue) -->
  <circle cx="780" cy="150" r="8" fill="url(#blueNodeGlow)"/>
  <circle cx="780" cy="150" r="5.5" fill="#0693e3" opacity="0.7"/>
  <circle cx="780" cy="150" r="3" fill="#34a9ea" opacity="0.9"/>

  <circle cx="770" cy="230" r="8" fill="url(#blueNodeGlow)"/>
  <circle cx="770" cy="230" r="5.5" fill="#0693e3" opacity="0.7"/>
  <circle cx="770" cy="230" r="3" fill="#34a9ea" opacity="0.9"/>

  <circle cx="760" cy="310" r="7" fill="url(#blueNodeGlow)"/>
  <circle cx="760" cy="310" r="5" fill="#0693e3" opacity="0.6"/>
  <circle cx="760" cy="310" r="2.5" fill="#34a9ea" opacity="0.8"/>

  <circle cx="760" cy="90" r="7" fill="url(#blueNodeGlow)"/>
  <circle cx="760" cy="90" r="5" fill="#0693e3" opacity="0.6"/>
  <circle cx="760" cy="90" r="2.5" fill="#34a9ea" opacity="0.8"/>

  <circle cx="700" cy="170" r="8" fill="url(#blueNodeGlow)"/>
  <circle cx="700" cy="170" r="6" fill="#0693e3" opacity="0.7"/>
  <circle cx="700" cy="170" r="3" fill="#34a9ea" opacity="0.9"/>

  <circle cx="700" cy="250" r="8" fill="url(#blueNodeGlow)"/>
  <circle cx="700" cy="250" r="6" fill="#0693e3" opacity="0.7"/>
  <circle cx="700" cy="250" r="3" fill="#34a9ea" opacity="0.9"/>

  <!-- === FLOATING PARTICLES === -->
  <!-- Violet particles -->
  <circle cx="160" cy="100" r="1.2" fill="#9b33f0" opacity="0.3"/>
  <circle cx="185" cy="310" r="1" fill="#7a00df" opacity="0.25"/>
  <circle cx="310" cy="80" r="1.5" fill="#9b33f0" opacity="0.3"/>
  <circle cx="290" cy="340" r="1" fill="#b366f5" opacity="0.25"/>
  <circle cx="420" cy="60" r="1.2" fill="#9b33f0" opacity="0.3"/>
  <circle cx="460" cy="350" r="1" fill="#7a00df" opacity="0.25"/>
  <circle cx="440" cy="100" r="1.5" fill="#b366f5" opacity="0.28"/>
  <circle cx="540" cy="45" r="1" fill="#9b33f0" opacity="0.3"/>
  <circle cx="555" cy="380" r="1.2" fill="#7a00df" opacity="0.25"/>
  <circle cx="480" cy="280" r="1" fill="#9b33f0" opacity="0.22"/>
  <circle cx="340" cy="175" r="1.3" fill="#b366f5" opacity="0.2"/>
  <circle cx="405" cy="250" r="1" fill="#9b33f0" opacity="0.22"/>
  <circle cx="150" cy="240" r="1.2" fill="#7a00df" opacity="0.2"/>

  <!-- Blue particles -->
  <circle cx="1120" cy="100" r="1.2" fill="#0693e3" opacity="0.3"/>
  <circle cx="1095" cy="310" r="1" fill="#34a9ea" opacity="0.25"/>
  <circle cx="970" cy="80" r="1.5" fill="#0693e3" opacity="0.3"/>
  <circle cx="990" cy="340" r="1" fill="#34a9ea" opacity="0.25"/>
  <circle cx="860" cy="60" r="1.2" fill="#0693e3" opacity="0.3"/>
  <circle cx="820" cy="350" r="1" fill="#34a9ea" opacity="0.25"/>
  <circle cx="840" cy="100" r="1.5" fill="#0693e3" opacity="0.28"/>
  <circle cx="740" cy="45" r="1" fill="#34a9ea" opacity="0.3"/>
  <circle cx="725" cy="380" r="1.2" fill="#0693e3" opacity="0.25"/>
  <circle cx="800" cy="280" r="1" fill="#34a9ea" opacity="0.22"/>
  <circle cx="940" cy="175" r="1.3" fill="#0693e3" opacity="0.2"/>
  <circle cx="875" cy="250" r="1" fill="#34a9ea" opacity="0.22"/>
  <circle cx="1130" cy="240" r="1.2" fill="#0693e3" opacity="0.2"/>

  <!-- Mixed / center particles -->
  <circle cx="620" cy="50" r="1" fill="#9b33f0" opacity="0.25"/>
  <circle cx="660" cy="380" r="1" fill="#0693e3" opacity="0.25"/>
  <circle cx="640" cy="30" r="1.2" fill="#b366f5" opacity="0.2"/>
  <circle cx="640" cy="390" r="1.2" fill="#34a9ea" opacity="0.2"/>
  <circle cx="600" cy="340" r="1" fill="#7a00df" opacity="0.2"/>
  <circle cx="680" cy="70" r="1" fill="#0693e3" opacity="0.2"/>
  <circle cx="610" cy="400" r="0.8" fill="#9b33f0" opacity="0.18"/>
  <circle cx="670" cy="15" r="0.8" fill="#34a9ea" opacity="0.18"/>

  <!-- Sparse green particles -->
  <circle cx="640" cy="210" r="1" fill="#00d084" opacity="0.15"/>
  <circle cx="490" cy="180" r="0.8" fill="#00d084" opacity="0.12"/>
  <circle cx="790" cy="195" r="0.8" fill="#00d084" opacity="0.12"/>
</svg>
